<svg xmlns="http://www.w3.org/2000/svg" width="81" height="80" viewBox="0 0 81 80" fill="none">
  <path d="M33 32.5L48 47.5M48 32.5L33 47.5M70.5 40C70.5 43.9397 69.724 47.8407 68.2164 51.4805C66.7087 55.1203 64.499 58.4274 61.7132 61.2132C58.9274 63.999 55.6203 66.2087 51.9805 67.7164C48.3407 69.224 44.4397 70 40.5 70C36.5603 70 32.6593 69.224 29.0195 67.7164C25.3797 66.2087 22.0726 63.999 19.2868 61.2132C16.501 58.4274 14.2913 55.1203 12.7836 51.4805C11.276 47.8407 10.5 43.9397 10.5 40C10.5 32.0435 13.6607 24.4129 19.2868 18.7868C24.9129 13.1607 32.5435 10 40.5 10C48.4565 10 56.0871 13.1607 61.7132 18.7868C67.3393 24.4129 70.5 32.0435 70.5 40Z" stroke="#F4B400" stroke-width="5" stroke-linecap="round" stroke-linejoin="round"/>
</svg>